<svg xmlns="http://www.w3.org/2000/svg" xmlns:xlink="http://www.w3.org/1999/xlink" version="1.1" x="0px" y="0px" width="250px" height="250px" viewBox="0 0 250 250" enable-background="new 0 0 250 250" xml:space="preserve"><g><path fill="#FFFFFF" d="M96.014 182.964c0-16.028-12.999-28.979-28.971-28.979c-16.057 0-29.027 12.951-29.027 28.979v0.057 c0 21.461-11.661 40.146-28.971 50.161l0.112 0.074c8.481 4.9 18.3 7.7 28.9 7.7 C70.072 241 96 215 96 182.964L96.014 182.964z"/><path fill="#FFFFFF" d="M232.469 17.51c-11.324-11.297-29.653-11.297-40.978 0L81.836 127.2 c20.003 5.3 35.7 21 41 40.968L232.469 58.506C243.784 47.2 243.8 28.9 232.5 17.51z"/></g></svg>